<svg width="340" height="88" viewBox="0 0 340 88" fill="none" xmlns="http://www.w3.org/2000/svg">
<path d="M298 84V88H42V84H298ZM336 46V42C336 21.0132 318.987 4 298 4H42C21.0132 4 4 21.0132 4 42V46C4 66.9868 21.0132 84 42 84V88C18.804 88 0 69.196 0 46V42C1.03095e-06 18.804 18.804 1.61065e-08 42 0H298L299.084 0.0136719C321.779 0.588628 340 19.1665 340 42V46L339.986 47.084C339.421 69.4187 321.419 87.4205 299.084 87.9863L298 88V84C318.987 84 336 66.9868 336 46Z" fill="#2C2C2C"/>
<path d="M296.038 37.4H286.438V56.6H296.038V63H289.638C283.238 63 280.038 59.8 280.038 53.4V37.4H273.638V31H280.038V18.2H286.438V31H296.038V37.4Z" fill="#2C2C2C"/>
<path d="M259.237 31C265.637 31 270.438 35.8 270.438 43.8V63H264.038V47C264.038 40.6 260.838 37.4 256.038 37.4C251.238 37.4 248.038 40.6 248.038 47V63H241.637V31H248.038V43.8C248.038 35.8 252.837 31 259.237 31Z" fill="#2C2C2C"/>
<path d="M228.85 31H235.25V63H228.85V50.2C228.85 58.2 225.65 63 219.25 63C211.25 63 204.85 56.6 204.85 47C204.85 37.4 211.25 31 219.25 31C225.65 31 228.85 35.8 228.85 43.8V31ZM220.85 56.6C225.65 56.6 228.85 53.4 228.85 47C228.85 40.6 225.65 37.4 220.85 37.4C216.05 37.4 211.25 40.6 211.25 47C211.25 53.4 216.05 56.6 220.85 56.6Z" fill="#2C2C2C"/>
<path d="M188.863 31C195.263 31 200.062 35.8 200.062 43.8V63H193.663V47C193.663 40.6 190.463 37.4 185.663 37.4C180.863 37.4 177.663 40.6 177.663 47V63H171.262V18.2H177.663V43.8C177.663 35.8 182.463 31 188.863 31Z" fill="#2C2C2C"/>
<path d="M156.85 31C161.65 31 164.85 32.6 164.85 32.6V39C164.85 39 160.05 37.4 156.85 37.4C152.05 37.4 147.25 40.6 147.25 47C147.25 53.4 152.05 56.6 156.85 56.6C160.05 56.6 164.85 55 164.85 55V61.4C164.85 61.4 161.65 63 156.85 63C147.25 63 140.85 56.6 140.85 47C140.85 37.4 147.25 31 156.85 31Z" fill="#2C2C2C"/>
<path d="M126.412 43.8C126.412 35.8 131.212 31 139.212 31V37.4C132.812 37.4 126.412 39 126.412 47V63H120.012V31H126.412V43.8Z" fill="#2C2C2C"/>
<path d="M115.213 47V48.6H92.9405C93.6445 53.912 98.0605 56.6 102.412 56.6C108.812 56.6 112.012 53.4 112.012 53.4V59.8C112.012 59.8 108.812 63 102.412 63C92.8125 63 86.4125 56.6 86.4125 47C86.4125 37.4 92.8125 31 100.812 31C108.813 31 115.213 37.4 115.213 47ZM100.812 37.4C96.9085 37.4 94.0285 39.512 93.1325 43.8H108.493C107.597 39.512 104.717 37.4 100.812 37.4Z" fill="#2C2C2C"/>
<path d="M73.6 31C78.4 31 81.6 34.2 81.6 39V63H75.2V42.2C75.2 39 73.6 37.4 70.4 37.4C67.2 37.4 65.6 39 65.6 42.2V63H59.2V37.4H49.6V63H43.2V31H65.6V39C65.6 34.2 68.8 31 73.6 31Z" fill="#2C2C2C"/>
</svg>
